<?xml version="1.0" encoding="utf-8"?><svg viewBox="0 0 36 36" xmlns="http://www.w3.org/2000/svg" xmlns:xlink="http://www.w3.org/1999/xlink"><style>:root>svg{display:none}:root>svg:target{display:block}</style><svg viewBox="0 0 36 36" id="Vector" xmlns="http://www.w3.org/2000/svg"><path d="M17.995 8.764A9.223 9.223 0 008.76 18a9.223 9.223 0 009.235 9.236A9.223 9.223 0 0027.231 18a9.223 9.223 0 00-9.236-9.236zm0 15.239c-3.305 0-6.002-2.698-6.002-6.003s2.697-6.003 6.002-6.003c3.305 0 6.003 2.698 6.003 6.003s-2.698 6.003-6.003 6.003zm9.614-17.77a2.154 2.154 0 00-2.157 2.158c0 1.193.964 2.156 2.157 2.156s2.157-.959 2.157-2.156a2.153 2.153 0 00-2.157-2.157zM35.998 18c0-2.486.023-4.949-.117-7.43-.14-2.882-.797-5.44-2.904-7.547C30.864.91 28.31.258 25.43.118 22.944-.022 20.48.001 18 .001c-2.486 0-4.95-.022-7.43.117-2.882.14-5.44.797-7.547 2.905C.91 5.135.258 7.688.118 10.57-.022 13.056.001 15.519.001 18s-.022 4.949.117 7.43c.14 2.882.797 5.44 2.905 7.547 2.112 2.112 4.665 2.765 7.547 2.905 2.485.14 4.948.117 7.43.117 2.485 0 4.948.022 7.43-.117 2.881-.14 5.44-.797 7.547-2.905 2.111-2.112 2.764-4.665 2.904-7.547.144-2.481.117-4.944.117-7.43zm-3.963 10.618a5.723 5.723 0 01-1.36 2.063 5.76 5.76 0 01-2.062 1.36c-2.368.94-7.993.729-10.618.729s-8.254.212-10.622-.725a5.722 5.722 0 01-2.063-1.36 5.762 5.762 0 01-1.36-2.062C3.014 26.25 3.225 20.625 3.225 18c0-2.625-.211-8.254.725-10.623a5.722 5.722 0 011.36-2.062 5.82 5.82 0 012.063-1.36c2.368-.937 7.997-.725 10.622-.725s8.254-.212 10.623.725c.82.329 1.432.725 2.062 1.36a5.76 5.76 0 011.36 2.062c.937 2.369.725 7.998.725 10.623 0 2.625.212 8.25-.73 10.618z" fill="#fff"/></svg><svg viewBox="0 0 36 36" id="rar" xmlns="http://www.w3.org/2000/svg"><path d="M34.56 0H1.44C.644 0 0 .643 0 1.44v33.12C0 35.356.643 36 1.44 36h33.12c.796 0 1.44-.644 1.44-1.44V1.44C36 .644 35.356 0 34.56 0zm-1.44 33.12h-8.284V22.059h4.68l.702-5.431h-5.383v-3.47c0-1.575.437-2.646 2.691-2.646h2.876v-4.86c-.5-.067-2.205-.216-4.194-.216-4.149 0-6.988 2.534-6.988 7.182v4.005h-4.69v5.431h4.694V33.12H2.88V2.88h30.24v30.24z" fill="#fff"/></svg></svg>