<?xml version="1.0" encoding="utf-8"?><svg viewBox="0 0 130 82" xmlns="http://www.w3.org/2000/svg" xmlns:xlink="http://www.w3.org/1999/xlink"><style>:root>svg{display:none}:root>svg:target{display:block}</style><svg viewBox="0 0 36 36" id="Vector" xmlns="http://www.w3.org/2000/svg"><path d="M17.995 8.764A9.223 9.223 0 008.76 18a9.223 9.223 0 009.235 9.236A9.223 9.223 0 0027.231 18a9.223 9.223 0 00-9.236-9.236zm0 15.239c-3.305 0-6.002-2.698-6.002-6.003s2.697-6.003 6.002-6.003c3.305 0 6.003 2.698 6.003 6.003s-2.698 6.003-6.003 6.003zm9.614-17.77a2.154 2.154 0 00-2.157 2.158c0 1.193.964 2.156 2.157 2.156s2.157-.959 2.157-2.156a2.153 2.153 0 00-2.157-2.157zM35.998 18c0-2.486.023-4.949-.117-7.43-.14-2.882-.797-5.44-2.904-7.547C30.864.91 28.31.258 25.43.118 22.944-.022 20.48.001 18 .001c-2.486 0-4.95-.022-7.43.117-2.882.14-5.44.797-7.547 2.905C.91 5.135.258 7.688.118 10.57-.022 13.056.001 15.519.001 18s-.022 4.949.117 7.43c.14 2.882.797 5.44 2.905 7.547 2.112 2.112 4.665 2.765 7.547 2.905 2.485.14 4.948.117 7.43.117 2.485 0 4.948.022 7.43-.117 2.881-.14 5.44-.797 7.547-2.905 2.111-2.112 2.764-4.665 2.904-7.547.144-2.481.117-4.944.117-7.43zm-3.963 10.618a5.723 5.723 0 01-1.36 2.063 5.76 5.76 0 01-2.062 1.36c-2.368.94-7.993.729-10.618.729s-8.254.212-10.622-.725a5.722 5.722 0 01-2.063-1.36 5.762 5.762 0 01-1.36-2.062C3.014 26.25 3.225 20.625 3.225 18c0-2.625-.211-8.254.725-10.623a5.722 5.722 0 011.36-2.062 5.82 5.82 0 012.063-1.36c2.368-.937 7.997-.725 10.622-.725s8.254-.212 10.623.725c.82.329 1.432.725 2.062 1.36a5.76 5.76 0 011.36 2.062c.937 2.369.725 7.998.725 10.623 0 2.625.212 8.25-.73 10.618z" fill="#fff"/></svg><svg fill="none" viewBox="0 0 55 17" id="arrows" xmlns="http://www.w3.org/2000/svg"><path d="M.724 8.5h53.552M53.914 8.5c-2.653-.236-8.322-2.125-9.77-7.792M53.914 8.5c-2.653.236-8.322 2.125-9.77 7.792" stroke="#000" stroke-linecap="round" stroke-linejoin="round"/></svg><svg fill="none" viewBox="0 0 130 82" id="logo" xmlns="http://www.w3.org/2000/svg"><path d="M16.644 49.87l8.49-27.324h6.67L17.15 64.626c-2.269 6.065-5.874 9.097-10.815 9.097l-1.18-.1-2.324-.439V68.13l1.685.135c2.111 0 3.75-.427 4.919-1.28 1.19-.854 2.167-2.415 2.93-4.683l1.382-3.706L.741 22.546h6.806l9.097 27.324zm35.41 9.804c-4.942 0-8.963-1.617-12.062-4.852-3.1-3.257-4.65-7.603-4.65-13.038v-1.146c0-3.616.685-6.84 2.056-9.67 1.392-2.852 3.324-5.075 5.794-6.67 2.493-1.617 5.189-2.426 8.086-2.426 4.74 0 8.423 1.561 11.051 4.683s3.942 7.592 3.942 13.41v2.594H41.575c.09 3.593 1.134 6.502 3.133 8.726 2.022 2.2 4.583 3.301 7.682 3.301 2.201 0 4.066-.449 5.593-1.347 1.527-.899 2.864-2.09 4.01-3.572l3.806 2.965c-3.054 4.695-7.636 7.042-13.746 7.042zm-.776-32.68c-2.515 0-4.627.92-6.334 2.762-1.707 1.82-2.762 4.38-3.167 7.681h18.261v-.471c-.18-3.167-1.033-5.615-2.56-7.345-1.528-1.752-3.594-2.628-6.2-2.628zM94.74 49.33c0-1.685-.64-2.988-1.92-3.909-1.258-.943-3.47-1.752-6.637-2.425-3.145-.674-5.65-1.483-7.514-2.426-1.841-.944-3.212-2.067-4.11-3.37-.876-1.302-1.314-2.852-1.314-4.649 0-2.987 1.258-5.514 3.774-7.58 2.538-2.067 5.772-3.1 9.703-3.1 4.133 0 7.48 1.067 10.04 3.2 2.583 2.134 3.874 4.864 3.874 8.188H94.37c0-1.707-.73-3.178-2.19-4.414-1.438-1.235-3.257-1.853-5.458-1.853-2.269 0-4.043.494-5.324 1.483-1.28.988-1.92 2.28-1.92 3.874 0 1.505.595 2.64 1.786 3.403 1.19.764 3.335 1.494 6.435 2.19 3.122.696 5.649 1.527 7.58 2.493 1.932.966 3.358 2.134 4.28 3.504.942 1.348 1.414 2.998 1.414 4.953 0 3.256-1.303 5.873-3.908 7.85-2.605 1.954-5.986 2.93-10.141 2.93-2.92 0-5.503-.516-7.75-1.549-2.245-1.033-4.009-2.47-5.289-4.313C72.627 51.948 72 49.938 72 47.782h6.232c.113 2.089.944 3.75 2.494 4.986 1.572 1.213 3.638 1.82 6.199 1.82 2.358 0 4.245-.472 5.66-1.416 1.438-.965 2.156-2.246 2.156-3.84zm14.488 6.4c0-1.077.314-1.976.943-2.694.651-.72 1.617-1.078 2.897-1.078 1.281 0 2.246.359 2.898 1.078.674.718 1.011 1.617 1.011 2.695 0 1.033-.337 1.898-1.011 2.594-.652.697-1.617 1.045-2.898 1.045-1.28 0-2.246-.349-2.897-1.045-.629-.696-.943-1.56-.943-2.594z" fill="#000"/></svg><svg viewBox="0 0 36 36" id="rar" xmlns="http://www.w3.org/2000/svg"><path d="M34.56 0H1.44C.644 0 0 .643 0 1.44v33.12C0 35.356.643 36 1.44 36h33.12c.796 0 1.44-.644 1.44-1.44V1.44C36 .644 35.356 0 34.56 0zm-1.44 33.12h-8.284V22.059h4.68l.702-5.431h-5.383v-3.47c0-1.575.437-2.646 2.691-2.646h2.876v-4.86c-.5-.067-2.205-.216-4.194-.216-4.149 0-6.988 2.534-6.988 7.182v4.005h-4.69v5.431h4.694V33.12H2.88V2.88h30.24v30.24z" fill="#fff"/></svg></svg>