<svg width="130" height="82" viewBox="0 0 130 82" fill="none" xmlns="http://www.w3.org/2000/svg">
<path d="M16.6436 49.8696L25.1338 22.5459H31.8047L17.1489 64.6265C14.8804 70.6909 11.2754 73.7231 6.33398 73.7231L5.15479 73.6221L2.83008 73.1841V68.1304L4.51465 68.2651C6.62598 68.2651 8.26562 67.8384 9.43359 66.9849C10.624 66.1313 11.6011 64.5703 12.3647 62.3018L13.7461 58.5957L0.741211 22.5459H7.54688L16.6436 49.8696ZM52.0532 59.6738C47.1118 59.6738 43.0913 58.0566 39.9917 54.8223C36.8921 51.5654 35.3423 47.2192 35.3423 41.7837V40.6382C35.3423 37.022 36.0273 33.7988 37.3975 30.9688C38.79 28.1162 40.7217 25.8926 43.1924 24.2979C45.6855 22.6807 48.3809 21.8721 51.2783 21.8721C56.0176 21.8721 59.7012 23.4331 62.3291 26.5552C64.957 29.6772 66.271 34.147 66.271 39.9644V42.5586H41.5752C41.665 46.1523 42.7095 49.061 44.7085 51.2847C46.73 53.4858 49.2905 54.5864 52.3901 54.5864C54.5913 54.5864 56.4556 54.1372 57.9829 53.2388C59.5103 52.3403 60.8467 51.1499 61.9922 49.6675L65.7993 52.6323C62.7446 57.3267 58.1626 59.6738 52.0532 59.6738ZM51.2783 26.9932C48.7627 26.9932 46.6514 27.9141 44.9443 29.7559C43.2373 31.5752 42.1816 34.1357 41.7773 37.4375H60.0381V36.9658C59.8584 33.7988 59.0049 31.3506 57.4775 29.6211C55.9502 27.8691 53.8838 26.9932 51.2783 26.9932ZM94.7402 49.3306C94.7402 47.646 94.1001 46.3433 92.8198 45.4224C91.562 44.479 89.3496 43.6704 86.1826 42.9966C83.0381 42.3228 80.5337 41.5142 78.6694 40.5708C76.8276 39.6274 75.4575 38.5044 74.5591 37.2017C73.6831 35.8989 73.2451 34.3491 73.2451 32.5522C73.2451 29.5649 74.5029 27.0381 77.0186 24.9717C79.5566 22.9053 82.791 21.8721 86.7217 21.8721C90.8545 21.8721 94.2012 22.939 96.7617 25.0728C99.3447 27.2065 100.636 29.9355 100.636 33.2598H94.3696C94.3696 31.5527 93.6396 30.0815 92.1797 28.8462C90.7422 27.6108 88.9229 26.9932 86.7217 26.9932C84.4531 26.9932 82.6787 27.4873 81.3984 28.4756C80.1182 29.4639 79.478 30.7554 79.478 32.3501C79.478 33.855 80.0732 34.9893 81.2637 35.7529C82.4541 36.5166 84.5991 37.2466 87.6987 37.9429C90.8208 38.6392 93.3477 39.4702 95.2793 40.436C97.2109 41.4019 98.6372 42.5698 99.5581 43.9399C100.501 45.2876 100.973 46.9385 100.973 48.8926C100.973 52.1494 99.6704 54.7661 97.0649 56.7427C94.4595 58.6968 91.0791 59.6738 86.9238 59.6738C84.0039 59.6738 81.4209 59.1572 79.1748 58.124C76.9287 57.0908 75.1655 55.6533 73.8853 53.8115C72.6274 51.9473 71.9985 49.937 71.9985 47.7808H78.2314C78.3438 49.8696 79.1748 51.5317 80.7246 52.7671C82.2969 53.98 84.3633 54.5864 86.9238 54.5864C89.2822 54.5864 91.1689 54.1147 92.584 53.1714C94.0215 52.2056 94.7402 50.9253 94.7402 49.3306ZM109.228 55.7319C109.228 54.6538 109.542 53.7554 110.171 53.0366C110.822 52.3179 111.788 51.9585 113.068 51.9585C114.349 51.9585 115.314 52.3179 115.966 53.0366C116.64 53.7554 116.977 54.6538 116.977 55.7319C116.977 56.7651 116.64 57.6299 115.966 58.3262C115.314 59.0225 114.349 59.3706 113.068 59.3706C111.788 59.3706 110.822 59.0225 110.171 58.3262C109.542 57.6299 109.228 56.7651 109.228 55.7319Z" fill="black"/>
</svg>
